<?xml version="1.0" encoding="utf-8"?>
<!-- Generator: Adobe Illustrator 15.0.0, SVG Export Plug-In . SVG Version: 6.00 Build 0)  -->
<!DOCTYPE svg PUBLIC "-//W3C//DTD SVG 1.1//EN" "http://www.w3.org/Graphics/SVG/1.1/DTD/svg11.dtd">
<svg version="1.1" id="Layer_1" xmlns="http://www.w3.org/2000/svg" xmlns:xlink="http://www.w3.org/1999/xlink" x="0px" y="0px"
	 width="480px" height="427.063px" viewBox="-112 -99.648 480 427.063" enable-background="new -112 -99.648 480 427.063"
	 xml:space="preserve">
<g>
	<path fill="#00D8FF" d="M282.656,38.771c-4.979-1.714-10.139-3.335-15.452-4.87c0.873-3.563,1.676-7.081,2.388-10.539
		c11.697-56.777,4.051-102.517-22.064-117.576c-25.041-14.44-65.994,0.616-107.353,36.61c-3.979,3.461-7.967,7.125-11.952,10.966
		c-2.657-2.542-5.31-4.997-7.954-7.345C76.923-92.47,33.476-108.689,7.386-93.585C-17.63-79.104-25.039-36.103-14.51,17.704
		c1.017,5.197,2.205,10.505,3.549,15.901c-6.149,1.746-12.085,3.607-17.765,5.586C-79.544,56.909-112,84.677-112,113.479
		c0,29.747,34.84,59.584,87.771,77.677c4.178,1.429,8.512,2.776,12.979,4.058c-1.45,5.838-2.711,11.558-3.769,17.135
		c-10.04,52.874-2.2,94.858,22.75,109.248c25.771,14.861,69.022-0.413,111.139-37.229c3.328-2.908,6.668-5.995,10.016-9.229
		c4.337,4.175,8.669,8.13,12.976,11.838c40.794,35.103,81.086,49.278,106.011,34.849c25.746-14.903,34.112-60.006,23.251-114.879
		c-0.83-4.189-1.795-8.471-2.879-12.828c3.036-0.897,6.019-1.826,8.927-2.789C332.197,173.099,368,143.624,368,113.479
		C368,84.572,334.499,56.618,282.656,38.771L282.656,38.771z M270.722,171.866c-2.624,0.87-5.319,1.708-8.063,2.523
		c-6.075-19.231-14.274-39.681-24.307-60.811c9.574-20.625,17.455-40.813,23.362-59.92c4.909,1.421,9.675,2.919,14.268,4.501
		c44.418,15.291,71.514,37.899,71.514,55.32C347.496,132.035,318.232,156.123,270.722,171.866L270.722,171.866z M251.007,210.932
		c4.805,24.264,5.489,46.201,2.307,63.351c-2.856,15.408-8.605,25.683-15.716,29.799c-15.126,8.754-47.476-2.626-82.362-32.647
		c-3.999-3.442-8.027-7.117-12.07-11.007c13.525-14.791,27.043-31.988,40.235-51.086c23.205-2.061,45.128-5.426,65.01-10.021
		C249.388,203.271,250.258,207.144,251.007,210.932L251.007,210.932z M51.643,302.566c-14.779,5.221-26.55,5.369-33.666,1.266
		c-15.141-8.73-21.436-42.44-12.85-87.66c0.983-5.178,2.154-10.495,3.503-15.934c19.663,4.347,41.426,7.477,64.686,9.362
		c13.282,18.688,27.189,35.865,41.204,50.905c-3.062,2.957-6.112,5.771-9.145,8.423C86.753,285.208,68.09,296.757,51.643,302.566
		L51.643,302.566z M-17.596,171.753c-23.406-8-42.734-18.396-55.984-29.742c-11.904-10.195-17.916-20.317-17.916-28.531
		c0-17.479,26.059-39.772,69.519-54.924c5.273-1.839,10.794-3.572,16.522-5.2C0.552,72.894,8.431,93.321,17.94,113.978
		c-9.632,20.965-17.623,41.718-23.688,61.484C-9.833,174.289-13.79,173.053-17.596,171.753L-17.596,171.753z M5.613,13.767
		C-3.407-32.335,2.584-67.112,17.66-75.839c16.059-9.296,51.567,3.958,88.993,37.19c2.392,2.124,4.794,4.347,7.202,6.647
		C99.909-17.026,86.128,0.021,72.965,18.6c-22.574,2.093-44.184,5.454-64.052,9.955C7.664,23.53,6.557,18.593,5.613,13.767
		L5.613,13.767z M212.664,64.892c-4.75-8.203-9.627-16.214-14.597-24.005c15.314,1.936,29.989,4.506,43.768,7.651
		c-4.137,13.259-9.293,27.122-15.362,41.333C222.118,81.604,217.513,73.27,212.664,64.892L212.664,64.892z M128.229-17.347
		c9.458,10.247,18.931,21.687,28.248,34.1c-9.39-0.444-18.893-0.675-28.477-0.675c-9.492,0-18.927,0.226-28.257,0.662
		C109.069,4.443,118.623-6.982,128.229-17.347L128.229-17.347z M43.253,65.034c-4.745,8.227-9.264,16.516-13.55,24.821
		c-5.971-14.161-11.08-28.086-15.253-41.534c13.695-3.064,28.3-5.57,43.517-7.47c-5.041,7.863-9.958,15.932-14.714,24.181V65.034
		L43.253,65.034z M58.406,187.571c-15.723-1.754-30.547-4.133-44.238-7.112c4.24-13.687,9.461-27.908,15.559-42.378
		c4.297,8.301,8.834,16.594,13.608,24.837h0.001C48.198,171.318,53.235,179.548,58.406,187.571L58.406,187.571z M128.797,245.751
		c-9.72-10.484-19.413-22.084-28.881-34.562c9.191,0.361,18.561,0.544,28.084,0.544c9.783,0,19.455-0.22,28.975-0.645
		C147.629,223.793,138.191,235.409,128.797,245.751L128.797,245.751z M226.668,137.346c6.416,14.622,11.825,28.771,16.117,42.224
		c-13.916,3.175-28.941,5.733-44.774,7.632c4.981-7.896,9.902-16.044,14.734-24.423
		C217.636,154.299,222.277,145.807,226.668,137.346L226.668,137.346z M194.983,152.534c-7.503,13.01-15.207,25.428-23.027,37.151
		c-14.241,1.021-28.958,1.544-43.956,1.544c-14.938,0-29.467-0.465-43.458-1.373c-8.137-11.876-16.007-24.331-23.462-37.211h0.002
		c-7.436-12.843-14.28-25.796-20.48-38.674c6.199-12.909,13.025-25.875,20.418-38.695l-0.002,0.002
		c7.413-12.855,15.214-25.25,23.275-37.053c14.275-1.079,28.913-1.642,43.707-1.642H128c14.861,0,29.517,0.567,43.788,1.655
		c7.938,11.717,15.687,24.072,23.128,36.928c7.527,13,14.441,25.881,20.692,38.513C209.376,126.529,202.477,139.539,194.983,152.534
		L194.983,152.534z M237.285-76.449c16.072,9.269,22.324,46.652,12.224,95.673c-0.645,3.128-1.37,6.314-2.157,9.543
		c-19.914-4.595-41.539-8.015-64.178-10.139c-13.191-18.782-26.858-35.857-40.576-50.64c3.688-3.549,7.371-6.933,11.037-10.125
		C189.073-72.975,222.193-85.151,237.285-76.449L237.285-76.449z M128,70.617c23.672,0,42.861,19.189,42.861,42.862
		c0,23.672-19.189,42.861-42.861,42.861s-42.862-19.189-42.862-42.861C85.138,89.807,104.328,70.617,128,70.617L128,70.617z"/>
</g>
</svg>
