<?xml version="1.0" encoding="utf-8"?>
<!-- Generator: Adobe Illustrator 15.0.0, SVG Export Plug-In . SVG Version: 6.00 Build 0)  -->
<!DOCTYPE svg PUBLIC "-//W3C//DTD SVG 1.1//EN" "http://www.w3.org/Graphics/SVG/1.1/DTD/svg11.dtd">
<svg version="1.1" id="Layer_1" xmlns="http://www.w3.org/2000/svg" xmlns:xlink="http://www.w3.org/1999/xlink" x="0px" y="0px"
	 width="360px" height="360px" viewBox="-52 -52 360 360" enable-background="new -52 -52 360 360" xml:space="preserve">
<g transform="translate(2.000000, 2.000000)">
	<path fill="#DC4E41" d="M306,294c0,6.627-5.373,12-12,12H-42c-6.628,0-12-5.373-12-12V-42c0-6.628,5.372-12,12-12h336
		c6.627,0,12,5.372,12,12V294z"/>
	<path fill="#FFFFFF" d="M90,117v21.6h35.73c-1.439,9.269-10.8,27.179-35.73,27.179c-21.509,0-39.06-17.819-39.06-39.779
		S68.49,86.22,90,86.22c12.241,0,20.431,5.22,25.11,9.72l17.101-16.47C121.23,69.21,107.01,63,90,63C55.17,63,27,91.17,27,126
		C27,160.83,55.17,188.999,90,188.999c36.36,0,60.482-25.559,60.482-61.559c0-4.14-0.452-7.29-0.991-10.439H90L90,117z"/>
	<path opacity="0.4" fill="#FFFFFF" enable-background="new    " d="M90,118.08h59.491c0.63,2.97,0.991,6.12,0.991,9.899v-0.63
		c0-4.14-0.452-7.29-0.991-10.439H90V118.08L90,118.08z M90,64.081c16.65,0,30.691,6.029,41.49,15.93l0.631-0.63
		C121.23,69.21,107.01,63,90,63C55.17,63,27,91.17,27,126v0.54C27.36,92.07,55.44,64.081,90,64.081L90,64.081z M90,166.859
		c24.931,0,34.291-17.819,35.73-27.179h-0.27c-1.98,9.539-11.43,26.01-35.46,26.01c-21.329,0-38.7-17.551-38.97-39.15
		c0,0.18-0.09,0.36-0.09,0.54C50.94,149.04,68.49,166.859,90,166.859L90,166.859z"/>
	<path opacity="0.1" fill="#3E2723" enable-background="new    " d="M90,86.22c-21.509,0-39.06,17.82-39.06,39.78
		c0,0.18,0.09,0.36,0.09,0.54C51.3,104.85,68.67,87.39,90,87.39c12.241,0,20.431,5.22,25.11,9.72l17.101-16.47
		c-0.182-0.18-0.45-0.36-0.631-0.54l-16.47,15.93C110.43,91.53,102.24,86.22,90,86.22L90,86.22z M90,138.601v1.08h35.46
		c0.09-0.36,0.18-0.811,0.27-1.08H90L90,138.601z"/>
	<path opacity="0.1" fill="#3E2723" enable-background="new    " d="M90,188.999c-34.56,0-62.639-27.898-62.999-62.459v0.54
		c0,34.83,28.169,63,62.999,63c36.36,0,60.482-25.56,60.482-61.56v-0.54C150.21,163.709,126.18,188.999,90,188.999L90,188.999z"/>
	<path fill="#FFFFFF" d="M225,117h-18V99h-18.001v18H171v18h17.999v18.001H207V135h18"/>
	<path opacity="0.4" fill="#FFFFFF" enable-background="new    " d="M207,117h18v1.08h-18V117z M188.999,99H207v1.08h-18.001V99z
		 M171,117h17.999v1.08H171V117z"/>
	<path opacity="0.1" fill="#3E2723" enable-background="new    " d="M171,135h17.999v1.081H171V135z M207,135h18v1.081h-18V135z
		 M188.999,153.001H207v1.079h-18.001V153.001z"/>
	<path fill="none" d="M-18-18h288v288H-18V-18z"/>
</g>
</svg>
