<?xml version="1.0" encoding="utf-8"?>
<!-- Generator: Adobe Illustrator 15.0.0, SVG Export Plug-In . SVG Version: 6.00 Build 0)  -->
<!DOCTYPE svg PUBLIC "-//W3C//DTD SVG 1.1//EN" "http://www.w3.org/Graphics/SVG/1.1/DTD/svg11.dtd">
<svg version="1.1" id="Layer_1" xmlns="http://www.w3.org/2000/svg" xmlns:xlink="http://www.w3.org/1999/xlink" x="0px" y="0px"
	 width="360px" height="360.001px" viewBox="-52 -52 360 360.001" enable-background="new -52 -52 360 360.001"
	 xml:space="preserve">
<g>
	<path fill="#395185" d="M288.131,308.001c10.972,0,19.869-8.896,19.869-19.868V-32.131C308-43.105,299.103-52,288.131-52H-32.131
		C-43.106-52-52-43.105-52-32.131v320.264c0,10.973,8.894,19.868,19.869,19.868H288.131"/>
	<path fill="#FFFFFF" d="M196.393,308.001V168.589h46.796l7.007-54.33h-53.803V79.57c0-15.73,4.37-26.45,26.928-26.45l28.771-0.012
		V4.514c-4.979-0.663-22.056-2.142-41.924-2.142c-41.481,0-69.879,25.319-69.879,71.818v40.068H93.373v54.33h46.916v139.412H196.393
		"/>
</g>
</svg>
